<?xml version="1.0" encoding="utf-8"?>
<!-- Generator: Adobe Illustrator 21.0.2, SVG Export Plug-In . SVG Version: 6.00 Build 0)  -->
<svg version="1.1" xmlns="http://www.w3.org/2000/svg" xmlns:xlink="http://www.w3.org/1999/xlink" x="0px" y="0px"
	 viewBox="0 0 950.2 276.5" style="enable-background:new 0 0 950.2 276.5;" xml:space="preserve">
<style type="text/css">
	.st0{fill:#11464B;}
	.st1{fill:#E682A3;}
	.st2{fill:#EDD796;}
	.st3{fill:#D66E60;}
	.st4{fill:#14A3C7;}
	.st5{fill:#138975;}
</style>
<g>
	<path class="st0" d="M363.4,139.7c0-33.2,26.3-58.7,58.7-58.7c32.4,0,58.7,25.5,58.7,58.7c0,33.2-26.3,58.7-58.7,58.7
		C389.6,198.4,363.4,172.9,363.4,139.7z M454.9,139.7c0-20.1-14.5-33.5-32.9-33.5c-18.4,0-32.9,13.4-32.9,33.5
		c0,20.1,14.5,33.5,32.9,33.5C440.4,173.2,454.9,159.8,454.9,139.7z"/>
	<path class="st0" d="M572.6,115.5l-29.8,80.6h-27.4l-29.8-80.6h26.8l16.8,51.1l16.8-51.1H572.6z"/>
	<path class="st0" d="M619.2,176.8c6.6,0,12.2-2.6,15.5-6.1l19.3,11.1c-7.9,11-19.8,16.6-35.1,16.6c-27.6,0-44.6-18.5-44.6-42.6
		s17.4-42.6,42.9-42.6c23.5,0,40.9,18.2,40.9,42.6c0,3.4-0.3,6.6-1,9.7h-57.2C602.9,173.9,610.3,176.8,619.2,176.8z M634,147.4
		c-2.6-9.3-9.8-12.7-17.1-12.7c-9.2,0-15.3,4.5-17.6,12.7H634z"/>
	<path class="st0" d="M720.1,113.9v27.4c-10-1.6-24.2,2.4-24.2,18.4v36.4h-24.2v-80.6h24.2v14.3
		C699.1,119.1,709.9,113.9,720.1,113.9z"/>
	<path class="st0" d="M731.3,78.4h24.2v117.7h-24.2V78.4z"/>
	<path class="st0" d="M855.9,115.5v80.6h-24.2v-7.6c-5.3,6.1-13.2,9.8-24,9.8c-21.1,0-38.5-18.5-38.5-42.6s17.4-42.6,38.5-42.6
		c10.8,0,18.7,3.7,24,9.8v-7.6H855.9z M831.7,155.8c0-12.1-8.1-19.7-19.2-19.7s-19.2,7.6-19.2,19.7c0,12.1,8.1,19.7,19.2,19.7
		S831.7,167.9,831.7,155.8z"/>
	<path class="st0" d="M950.2,115.5l-27.6,78.2c-9,25.6-23.4,35.8-45.9,34.7v-22.6c11.3,0,16.6-3.5,20.1-13.4l-32.1-76.9h26.6
		l17.9,49.3l15.2-49.3H950.2z"/>
</g>
<polyline class="st1" points="155.5,0 0,103.7 25.9,121 155.5,34.6 285.1,121 311.1,103.7 155.5,0 "/>
<path class="st2" d="M25.9,121L0,138.2l25.9,17.3l25.9-17.3L25.9,121 M285.1,121l-25.9,17.3l25.9,17.3l25.9-17.3L285.1,121"/>
<polyline class="st3" points="155.5,34.6 25.9,121 51.8,138.2 155.5,69.1 259.2,138.2 285.1,121 155.5,34.6 "/>
<polyline class="st4" points="285.1,155.5 155.5,241.9 25.9,155.5 0,172.8 155.5,276.5 311.1,172.8 285.1,155.5 "/>
<polyline class="st5" points="259.2,138.2 155.5,207.4 51.8,138.2 25.9,155.5 155.5,241.9 285.1,155.5 259.2,138.2 "/>
<polyline class="st0" points="155.5,69.1 51.8,138.2 155.5,207.4 259.2,138.2 155.5,69.1 "/>
<ellipse class="st2" cx="217.7" cy="138.2" rx="13.8" ry="9.2"/>
<ellipse class="st3" cx="186.6" cy="159" rx="13.8" ry="9.2"/>
<ellipse class="st1" cx="155.5" cy="179.7" rx="13.8" ry="9.2"/>
<ellipse class="st5" cx="186.6" cy="117.5" rx="13.8" ry="9.2"/>
<ellipse class="st2" cx="155.5" cy="138.2" rx="13.8" ry="9.2"/>
<ellipse class="st3" cx="124.4" cy="159" rx="13.8" ry="9.2"/>
<ellipse class="st4" cx="155.5" cy="96.8" rx="13.8" ry="9.2"/>
<ellipse class="st5" cx="124.4" cy="117.5" rx="13.8" ry="9.2"/>
<ellipse class="st2" cx="93.3" cy="138.2" rx="13.8" ry="9.2"/>
</svg>
