<svg data-name="Layer 1" xmlns="http://www.w3.org/2000/svg" viewBox="0 0 512 512"><defs><style>.cls-1{fill:#14a3c7;}.cls-2{fill:#12537f;}.cls-3{fill:#eed796;}.cls-4{fill:#d96e60;}.cls-5{fill:#138975;}.cls-6{fill:#11464b;}.cls-7{fill:#e982a3;}</style></defs><title>overlay-icon</title><path class="cls-1" d="M58.22,144.88C34.8,179.8,21.15,222.17,21.15,268.56c0,124.7,98.67,220.35,220.35,220.35q7.31,0,14.51-.46c-80.58-5.08-149.37-52.3-183.28-121.33C49.31,332.2,35.65,289.83,35.65,243.44a222.62,222.62,0,0,1,22.56-98.55m212.29-2.24a138.36,138.36,0,0,0-14.51.76c62,6.53,109,54.88,109,125.16a136.72,136.72,0,0,1-10.5,53.8c15.74-20.82,25-47.71,25-78.92a136.71,136.71,0,0,0-10.5-53.8c-22.41-29.65-57.94-47-98.49-47"/><path class="cls-2" d="M369,189.64a136.71,136.71,0,0,1,10.5,53.8c0,31.22-9.27,58.1-25,78.92-17.21,40.43-54,66.67-98.48,71.36a138.37,138.37,0,0,0,14.51.76c69,0,123.49-50.24,123.49-125.91,0-31.21-9.27-58.1-25-78.92M241.49,48.21c-76.41,0-143.75,37.72-183.28,96.67a222.62,222.62,0,0,0-22.56,98.55c0,46.39,13.66,88.76,37.07,123.68a222.63,222.63,0,0,1-22.57-98.56C50.16,148.85,141.08,55.92,256,48.67q-7.19-.45-14.51-.46"/><path class="cls-3" d="M453.78,144.88a222.63,222.63,0,0,1,22.56,98.56c0,46.39-13.66,88.76-37.07,123.68-33.91,69-102.69,116.25-183.28,121.33q7.19.45,14.5.46c121.68,0,220.35-95.64,220.35-220.35,0-46.39-13.65-88.76-37.07-123.68m-212.29-2.23c-40.54,0-76.07,17.34-98.48,47a136.71,136.71,0,0,0-10.5,53.8c0,31.22,9.27,58.1,25,78.92a136.73,136.73,0,0,1-10.5-53.8c0-70.28,47-118.63,109-125.16a138.36,138.36,0,0,0-14.51-.76"/><path class="cls-4" d="M143,189.64c-15.73,20.82-25,47.71-25,78.92,0,75.67,54.48,125.91,123.49,125.91a138.37,138.37,0,0,0,14.51-.76c-44.5-4.69-81.27-30.92-98.48-71.36-15.74-20.82-25-47.71-25-78.92a136.71,136.71,0,0,1,10.5-53.8M270.51,48.21q-7.31,0-14.5.46c114.92,7.25,205.84,100.18,205.84,219.89a222.64,222.64,0,0,1-22.57,98.56c23.41-34.92,37.07-77.29,37.07-123.68a222.63,222.63,0,0,0-22.56-98.56C414.26,85.93,346.92,48.21,270.51,48.21"/><path class="cls-5" d="M72.72,367.12c33.91,69,102.69,116.25,183.28,121.33,80.59-5.08,149.37-52.3,183.28-121.33C399.75,426.07,332.41,463.79,256,463.79S112.25,426.07,72.72,367.12M256,117.52c-50.93,0-93.94,27.36-113,72.12,22.41-29.65,57.94-47,98.48-47a138.36,138.36,0,0,1,14.51.76,138.36,138.36,0,0,1,14.51-.76c40.54,0,76.07,17.34,98.49,47-19-44.75-62.06-72.12-113-72.12"/><path class="cls-6" d="M143,189.64c19-44.75,62.06-72.12,113-72.12s93.94,27.37,113,72.12c15.74,20.82,25,47.71,25,78.92,0,75.67-54.48,125.91-123.49,125.91a138.37,138.37,0,0,1-14.51-.76,138.37,138.37,0,0,1-14.51.76c-69,0-123.49-50.24-123.49-125.91,0-31.21,9.27-58.1,25-78.92m113-141C141.08,55.92,50.16,148.85,50.16,268.56a222.63,222.63,0,0,0,22.57,98.56c39.53,58.95,106.87,96.67,183.28,96.67s143.75-37.72,183.28-96.67a222.64,222.64,0,0,0,22.57-98.56c0-119.71-90.92-212.64-205.84-219.89"/><path class="cls-7" d="M354.48,322.36c-22.41,29.65-57.94,47-98.48,47s-76.07-17.34-98.48-47c17.21,40.43,54,66.67,98.48,71.36,44.5-4.69,81.28-30.93,98.48-71.36M256,23.09c-86.78,0-161.86,48.65-197.78,121.79C97.74,85.94,165.08,48.21,241.49,48.21q7.31,0,14.51.46,7.19-.45,14.5-.46c76.41,0,143.75,37.72,183.28,96.67C417.86,71.74,342.78,23.09,256,23.09"/></svg>