<svg data-name="Overlay Logo" xmlns="http://www.w3.org/2000/svg" viewBox="0 0 857.54 211.25"><defs><style>.overlay-logo-centered-1{fill:#11464b;}.overlay-logo-centered-2{fill:#e482a3;}.overlay-logo-centered-3{fill:#ecd796;}.overlay-logo-centered-4{fill:#d66e60;}.overlay-logo-centered-5{fill:#1c9fbf;}.overlay-logo-centered-6{fill:#198a75;}</style></defs><title>overlay-logo-whitespace-centered-on-o</title><path class="overlay-logo-centered-1" d="M277.47,105.62c0-34.49,24.18-58.83,59-58.83,34.17,0,58.83,23.69,58.83,58.83,0,35-24.66,58.67-58.83,58.67C301.65,164.29,277.47,140.12,277.47,105.62Zm89.62,0c0-19-12.89-33.69-30.62-33.69-18.05,0-30.79,15-30.79,33.69s12.73,33.69,30.79,33.69C354.19,139.31,367.08,124.64,367.08,105.62Z"/><path class="overlay-logo-centered-1" d="M403,84h26.59l15.47,48.51h.16L460.89,84h26.27l-30.62,78.82h-23Z"/><path class="overlay-logo-centered-1" d="M567.11,130.12H513.44c1.61,9,9.19,13.7,18.86,13.7a24.87,24.87,0,0,0,18.38-8.54l14.51,14.83c-6.61,8.22-17.57,14.18-35.46,14.18-23.85,0-41.26-16.44-41.26-40.94,0-23.85,16.76-40.78,40.62-40.78,22.24,0,38.52,16.6,38.52,40C567.59,124.8,567.27,128.51,567.11,130.12Zm-53.51-15h29.5c-1.61-7.74-6.77-12.57-14.34-12.57C521,102.56,515.21,107.24,513.6,115.13Z"/><path class="overlay-logo-centered-1" d="M581,84h25.14V95h.32c5.8-8.06,14-12.41,22.73-12.41h1v27.24c-2.42-.16-4.67-.32-6-.32-11.93,0-18.05,7.58-18.05,17.89v35.46H581Z"/><path class="overlay-logo-centered-1" d="M641.89,44.22H667V162.84H641.89Z"/><path class="overlay-logo-centered-1" d="M681.05,123.52c0-24.18,15.63-40.94,35.94-40.94a28.21,28.21,0,0,1,21.76,9.83l.32-.16V84h25.31v78.82h-24v-8.22l-.32-.16c-5.16,6.61-12.25,9.83-21.76,9.83C696.69,164.29,681.05,147.85,681.05,123.52Zm59.15,0c0-10.8-7.25-18.7-16.6-18.7-9.67,0-16.92,7.41-16.92,18.7,0,11.12,6.93,18.54,16.92,18.54C732.63,142.05,740.21,134.8,740.21,123.52Z"/><path class="overlay-logo-centered-1" d="M804.84,157.52,774.05,84H801l15.8,42.39h.48L832.4,84h25.14L816.12,194.76H791.3Z"/><polyline class="overlay-logo-centered-2" points="118.83 0 0 79.22 19.8 92.42 118.83 26.41 217.85 92.42 237.66 79.22 118.83 0"/><path class="overlay-logo-centered-3" d="M19.8,92.42,0,105.62l19.81,13.2,19.8-13.2L19.8,92.42m198,0L198,105.62l19.8,13.2,19.81-13.2-19.8-13.2"/><polyline class="overlay-logo-centered-4" points="118.83 26.41 19.8 92.42 39.61 105.63 118.83 52.81 198.05 105.63 217.85 92.42 118.83 26.41"/><polyline class="overlay-logo-centered-5" points="217.85 118.83 118.83 184.84 19.8 118.83 0 132.03 118.83 211.25 237.66 132.03 217.85 118.83"/><polyline class="overlay-logo-centered-6" points="198.05 105.63 118.83 158.44 39.61 105.63 19.8 118.83 118.83 184.84 217.85 118.83 198.05 105.63"/></svg>