<svg xmlns="http://www.w3.org/2000/svg" viewBox="0 0 857.54 210.54"><defs><style>.strata-logo-1{fill:#14a3c7;}.strata-logo-2{fill:#e271a0;}.strata-logo-3{fill:#e8e395;}.strata-logo-4{fill:#129174;}.strata-logo-5{fill:#ce655d;}.strata-logo-6{fill:#104049;}.strata-logo-7{fill:#103d49;}</style></defs><title>overlay-wordmark-and-icon-logo-transparent</title><polyline class="strata-logo-1" points="118.43 0 0 78.95 19.74 92.11 118.43 26.32 217.12 92.11 236.86 78.95 118.43 0"/><polyline class="strata-logo-2" points="217.12 118.43 118.43 184.22 19.74 118.43 0 131.59 118.43 210.54 236.86 131.59 217.12 118.43"/><path class="strata-logo-3" d="M19.74,92.11,0,105.27l19.74,13.16,19.74-13.16L19.74,92.11m197.39,0-19.74,13.16,19.74,13.16,19.74-13.16L217.12,92.11"/><polyline class="strata-logo-4" points="118.43 26.32 19.74 92.11 39.48 105.27 118.43 52.63 197.38 105.27 217.12 92.11 118.43 26.32"/><polyline class="strata-logo-5" points="197.38 105.27 118.43 157.91 39.48 105.27 19.74 118.43 118.43 184.22 217.12 118.43 197.38 105.27"/><polyline class="strata-logo-6" points="118.43 52.63 39.48 105.27 118.43 157.91 197.38 105.27 118.43 52.63"/><path class="strata-logo-7" d="M277.47,104.91c0-34.49,24.18-58.83,59-58.83,34.17,0,58.83,23.69,58.83,58.83s-24.66,58.67-58.83,58.67C301.65,163.58,277.47,139.41,277.47,104.91Zm89.62,0c0-19-12.89-33.69-30.62-33.69-18,0-30.79,15-30.79,33.69s12.73,33.69,30.79,33.69c17.72,0,30.61-14.67,30.61-33.69Z"/><path class="strata-logo-7" d="M403,83.29h26.59l15.47,48.51h.16l15.67-48.51h26.27l-30.62,78.82h-23Z"/><path class="strata-logo-7" d="M567.11,129.41H513.44c1.61,9,9.19,13.7,18.86,13.7a24.87,24.87,0,0,0,18.38-8.54l14.51,14.83c-6.61,8.22-17.57,14.18-35.46,14.18-23.85,0-41.26-16.44-41.26-40.94,0-23.85,16.76-40.78,40.62-40.78,22.24,0,38.52,16.6,38.52,40C567.59,124.09,567.27,127.8,567.11,129.41Zm-53.51-15h29.5c-1.61-7.74-6.77-12.57-14.34-12.57-7.76,0-13.55,4.69-15.16,12.58Z"/><path class="strata-logo-7" d="M581,83.29h25.14v11h.32c5.8-8.06,14-12.41,22.73-12.41h1v27.24c-2.42-.16-4.67-.32-6-.32-11.93,0-18,7.58-18,17.89v35.46H581Z"/><path class="strata-logo-7" d="M641.89,43.51H667V162.13H641.89Z"/><path class="strata-logo-7" d="M681.05,122.81c0-24.18,15.63-40.94,35.94-40.94a28.21,28.21,0,0,1,21.76,9.83l.32-.16V83.29h25.31v78.82h-24v-8.22l-.32-.16c-5.16,6.61-12.25,9.83-21.76,9.83C696.69,163.58,681.05,147.14,681.05,122.81Zm59.15,0c0-10.8-7.25-18.7-16.6-18.7-9.67,0-16.92,7.41-16.92,18.7,0,11.12,6.93,18.54,16.92,18.54,9,0,16.61-7.26,16.61-18.54Z"/><path class="strata-logo-7" d="M804.84,156.81,774.05,83.29h27l15.8,42.39h.48L832.4,83.29h25.14L816.12,194.05H791.3Z"/></svg>