<svg id="Layer_1" data-name="Layer 1" xmlns="http://www.w3.org/2000/svg" viewBox="0 0 857.54 211.25"><defs><style>.cls-1{fill:#13464b;}.cls-2{fill:#e482a3;}.cls-3{fill:#ecd796;}.cls-4{fill:#d66e60;}.cls-5{fill:#1c9fbf;}.cls-6{fill:#198a75;}</style></defs><title>overlay-logo-whitespace</title><path class="cls-1" d="M277.47,87.81c0-34.49,24.18-58.83,59-58.83,34.17,0,58.83,23.69,58.83,58.83,0,35-24.66,58.67-58.83,58.67C301.65,146.48,277.47,122.31,277.47,87.81Zm89.62,0c0-19-12.89-33.69-30.62-33.69-18.05,0-30.79,15-30.79,33.69s12.73,33.69,30.79,33.69C354.19,121.5,367.08,106.83,367.08,87.81Z"/><path class="cls-1" d="M403,66.22h26.59l15.47,48.51h.16l15.63-48.51h26.27L456.54,145h-23Z"/><path class="cls-1" d="M567.11,112.31H513.44c1.61,9,9.19,13.7,18.86,13.7a24.87,24.87,0,0,0,18.38-8.54l14.51,14.83c-6.61,8.22-17.57,14.18-35.46,14.18-23.85,0-41.26-16.44-41.26-40.94,0-23.85,16.76-40.78,40.62-40.78,22.24,0,38.52,16.6,38.52,40C567.59,107,567.27,110.7,567.11,112.31Zm-53.51-15h29.5c-1.61-7.74-6.77-12.57-14.34-12.57C521,84.75,515.21,89.43,513.6,97.32Z"/><path class="cls-1" d="M581,66.22h25.14v11h.32c5.8-8.06,14-12.41,22.73-12.41h1V92c-2.42-.16-4.67-.32-6-.32-11.93,0-18.05,7.58-18.05,17.89V145H581Z"/><path class="cls-1" d="M641.89,26.41H667V145H641.89Z"/><path class="cls-1" d="M681.05,105.71c0-24.18,15.63-40.94,35.94-40.94a28.21,28.21,0,0,1,21.76,9.83l.32-.16V66.22h25.31V145h-24v-8.22l-.32-.16c-5.16,6.61-12.25,9.83-21.76,9.83C696.69,146.48,681.05,130,681.05,105.71Zm59.15,0c0-10.8-7.25-18.7-16.6-18.7-9.67,0-16.92,7.41-16.92,18.7,0,11.12,6.93,18.54,16.92,18.54C732.63,124.24,740.21,117,740.21,105.71Z"/><path class="cls-1" d="M804.84,139.71l-30.79-73.5H801l15.8,42.39h.48L832.4,66.22h25.14L816.12,176.95H791.3Z"/><polyline class="cls-2" points="118.83 0 0 79.22 19.8 92.42 118.83 26.41 217.85 92.42 237.66 79.22 118.83 0"/><path class="cls-3" d="M19.8,92.42,0,105.62l19.81,13.2,19.8-13.2L19.8,92.42m198,0L198,105.62l19.8,13.2,19.81-13.2-19.8-13.2"/><polyline class="cls-4" points="118.83 26.41 19.8 92.42 39.61 105.63 118.83 52.81 198.05 105.63 217.85 92.42 118.83 26.41"/><polyline class="cls-5" points="217.85 118.83 118.83 184.84 19.8 118.83 0 132.03 118.83 211.25 237.66 132.03 217.85 118.83"/><polyline class="cls-6" points="198.05 105.63 118.83 158.44 39.61 105.63 19.8 118.83 118.83 184.84 217.85 118.83 198.05 105.63"/></svg>