<svg viewBox="0 0 899 211" xmlns="http://www.w3.org/2000/svg"><g fill="none" fill-rule="evenodd"><path fill="#14A3C7" d="M118.4 0L0 79 19.7 92l98.7-65.8 98.7 65.8L237 79 118.4 0"/><path fill="#E271A0" d="M217.1 118.4l-98.7 65.8-98.7-65.8L0 131.6l118.4 79 118.5-79-19.8-13.2"/><path d="M19.7 92.1L0 105.3l19.7 13.1 19.8-13.1L19.7 92m197.4 0l-19.7 13.2 19.7 13.1 19.8-13.1L217 92" fill="#E8E395" fill-rule="nonzero"/><path fill="#129174" d="M118.4 26.3L19.7 92.1l19.8 13.2 79-52.7 78.9 52.7L217 92l-98.7-65.8"/><path fill="#CE655D" d="M197.4 105.3l-79 52.6-79-52.6-19.7 13.1 98.7 65.8 98.7-65.8-19.7-13.1"/><path fill="#104049" d="M118.4 52.6l-79 52.7 79 52.6 79-52.6-79-52.7"/><path d="M277.5 105a56.4 56.4 0 0159-59 56.3 56.3 0 0158.8 59c0 35-24.7 58.6-58.8 58.6-34.9 0-59-24.2-59-58.7zm89.6 0c0-19-12.9-33.8-30.6-33.8-18 0-30.8 15-30.8 33.7 0 18.7 12.7 33.7 30.8 33.7 17.7 0 30.6-14.7 30.6-33.7z" fill="#103D49" fill-rule="nonzero"/><path fill="#103D49" d="M403 83.3h26.6l15.5 48.5h.1L461 83.3h26.3L456.5 162h-23z"/><path d="M567.1 129.4h-53.7c1.6 9 9.2 13.7 18.9 13.7 7-.1 13.7-3.2 18.4-8.5l14.5 14.8c-6.6 8.2-17.6 14.2-35.5 14.2a39.3 39.3 0 01-41.2-41A39 39 0 01529 82c22.2 0 38.5 16.6 38.5 40 0 2.2-.3 5.9-.5 7.5zm-53.5-15h29.5c-1.6-7.7-6.8-12.6-14.3-12.6-7.8 0-13.6 4.7-15.2 12.6z" fill="#103D49" fill-rule="nonzero"/><path d="M581 83.3h25.1v11h.4a28 28 0 0122.7-12.4h1V109l-6-.3c-12 0-18 7.6-18 17.9v35.5H581v-79zM641.9 43.5H667v118.6h-25.1z" fill="#103D49"/><path d="M681 122.8c0-24.2 15.7-41 36-41 8.3 0 16.3 3.6 21.8 9.9l.3-.2v-8.2h25.3V162h-24V154l-.3-.2a25.8 25.8 0 01-21.8 9.9c-21.6 0-37.3-16.5-37.3-40.8zm59.2 0c0-10.8-7.3-18.7-16.6-18.7-9.7 0-17 7.4-17 18.7 0 11.1 7 18.5 17 18.5 9 0 16.6-7.2 16.6-18.5z" fill="#103D49" fill-rule="nonzero"/><path fill="#103D49" d="M804.8 156.8L774 83.3h27l15.9 42.4h.4l15.1-42.4h25.1L816.1 194h-24.8z"/><text font-family="Helvetica-Bold, Helvetica" font-size="40" font-weight="bold" fill="#103D49"><tspan x="869.3" y="112">®</tspan></text></g></svg>
