<?xml version="1.0" encoding="utf-8"?>
<!-- Generator: Adobe Illustrator 21.0.2, SVG Export Plug-In . SVG Version: 6.00 Build 0)  -->
<svg version="1.1" xmlns="http://www.w3.org/2000/svg" xmlns:xlink="http://www.w3.org/1999/xlink" x="0px" y="0px"
	 viewBox="0 0 844.6 245.8" style="enable-background:new 0 0 844.6 245.8;" xml:space="preserve">
<style type="text/css">
	.st0{fill:#114F4F;}
	.st1{fill:#E982A3;}
	.st2{fill:#EED796;}
	.st3{fill:#D96E60;}
	.st4{fill:#01B5E2;}
	.st5{fill:#289882;}
</style>
<g>
	<path class="st0" d="M323,124.2c0-29.5,23.4-52.1,52.1-52.1s52.1,22.6,52.1,52.1s-23.4,52.1-52.1,52.1S323,153.7,323,124.2z
		 M404.4,124.2c0-17.9-12.9-29.8-29.2-29.8s-29.2,11.9-29.2,29.8s12.9,29.8,29.2,29.8S404.4,142.1,404.4,124.2z"/>
	<path class="st0" d="M509,102.7l-26.5,71.6h-24.4l-26.5-71.6h23.8l14.9,45.4l14.9-45.4H509z"/>
	<path class="st0" d="M550.4,157.1c5.9,0,10.9-2.3,13.8-5.4l17.2,9.9c-7,9.7-17.6,14.8-31.2,14.8c-24.5,0-39.7-16.5-39.7-37.8
		s15.5-37.8,38.1-37.8c20.9,0,36.4,16.2,36.4,37.8c0,3-0.3,5.9-0.9,8.6h-50.9C535.9,154.5,542.5,157.1,550.4,157.1z M563.5,131.1
		c-2.3-8.3-8.7-11.3-15.2-11.3c-8.2,0-13.6,4-15.6,11.3H563.5z"/>
	<path class="st0" d="M640,101.3v24.4c-8.9-1.4-21.5,2.1-21.5,16.3v32.4h-21.5v-71.6h21.5v12.8C621.4,105.8,631,101.3,640,101.3z"/>
	<path class="st0" d="M650.1,69.7h21.5v104.6h-21.5V69.7z"/>
	<path class="st0" d="M760.8,102.7v71.6h-21.5v-6.7c-4.7,5.4-11.7,8.7-21.3,8.7c-18.8,0-34.2-16.5-34.2-37.8s15.5-37.8,34.2-37.8
		c9.6,0,16.6,3.3,21.3,8.7v-6.7H760.8z M739.3,138.5c0-10.7-7.2-17.5-17-17.5c-9.9,0-17,6.7-17,17.5s7.2,17.5,17,17.5
		C732.2,156,739.3,149.2,739.3,138.5z"/>
	<path class="st0" d="M844.6,102.7l-24.5,69.5c-8,22.8-20.8,31.8-40.8,30.8v-20.1c10,0,14.8-3.2,17.9-11.9l-28.5-68.3h23.6
		l15.9,43.8l13.5-43.8H844.6z"/>
</g>
<g>
	<polyline class="st1" points="138.2,0 0,92.2 23,107.5 138.2,30.7 253.5,107.5 276.5,92.2 138.2,0 	"/>
	<path class="st2" d="M23,107.5L0,122.9l23,15.4l23-15.4L23,107.5 M253.5,107.5l-23,15.4l23,15.4l23-15.4L253.5,107.5"/>
	<polyline class="st3" points="138.2,30.7 23,107.5 46.1,122.9 138.2,61.4 230.4,122.9 253.5,107.5 138.2,30.7 	"/>
	<polyline class="st4" points="253.5,138.2 138.2,215 23,138.2 0,153.6 138.2,245.8 276.5,153.6 253.5,138.2 	"/>
	<polyline class="st5" points="230.4,122.9 138.2,184.3 46.1,122.9 23,138.2 138.2,215 253.5,138.2 230.4,122.9 	"/>
	<polyline class="st0" points="138.2,61.4 46.1,122.9 138.2,184.3 230.4,122.9 138.2,61.4 	"/>
</g>
</svg>
