<?xml version="1.0" encoding="utf-8"?>
<!-- Generator: Adobe Illustrator 21.0.2, SVG Export Plug-In . SVG Version: 6.00 Build 0)  -->
<svg version="1.1" xmlns="http://www.w3.org/2000/svg" xmlns:xlink="http://www.w3.org/1999/xlink" x="0px" y="0px"
	 viewBox="0 0 749.9 197.1" style="enable-background:new 0 0 749.9 197.1;" xml:space="preserve">
<style type="text/css">
	.st0{clip-path:url(#SVGID_2_);fill:#0A1772;}
	.st1{clip-path:url(#SVGID_2_);}
	.st2{fill:none;stroke:#FF45B3;stroke-width:4;stroke-miterlimit:10;}
	.st3{fill:none;stroke:#FF45B3;stroke-width:3.8;stroke-miterlimit:10;}
	.st4{fill:none;stroke:#FF45B3;stroke-width:3.6;stroke-miterlimit:10;}
	.st5{fill:none;stroke:#FF45B3;stroke-width:3.4;stroke-miterlimit:10;}
	.st6{fill:none;stroke:#FF45B3;stroke-width:3.2;stroke-miterlimit:10;}
	.st7{fill:none;stroke:#FF45B3;stroke-width:3;stroke-miterlimit:10;}
	.st8{fill:none;stroke:#FF45B3;stroke-width:2.8;stroke-miterlimit:10;}
	.st9{fill:none;stroke:#FF45B3;stroke-width:2.6;stroke-miterlimit:10;}
	.st10{fill:none;stroke:#FF45B3;stroke-width:2.4;stroke-miterlimit:10;}
	.st11{fill:none;stroke:#FF45B3;stroke-width:2.2;stroke-miterlimit:10;}
	.st12{fill:none;stroke:#FF45B3;stroke-width:2;stroke-miterlimit:10;}
	.st13{fill:none;stroke:#FF45B3;stroke-width:1.8;stroke-miterlimit:10;}
	.st14{fill:none;stroke:#FF45B3;stroke-width:1.6;stroke-miterlimit:10;}
	.st15{fill:none;stroke:#FF45B3;stroke-width:1.4;stroke-miterlimit:10;}
	.st16{fill:none;stroke:#FF45B3;stroke-width:1.2;stroke-miterlimit:10;}
	.st17{fill:none;stroke:#FF45B3;stroke-miterlimit:10;}
</style>
<g>
	<defs>
		<path id="SVGID_1_" d="M195.2,25.5h-27.9v36.6h-21.6v21.4h21.6v72.2c0,25.1,16,38.8,40.2,38.8h20v-22.4h-14.4
			c-10.6,0-18-6.8-18-19.6v-69h32.6V62.1h-32.6V25.5z M285.5,85.6V62.1h-27.1v132.4h27.9v-67.9c0-29.2,18.1-39.1,45.1-39.1V60.9
			C309.1,61.5,293.2,72.5,285.5,85.6z M77.9,84.2C55.8,75,37.1,68,37.1,49.2c0-15.5,12.5-23.6,27.4-23.6c14.4,0,28.6,5.5,43.1,20.2
			l16.5-20.2C109.1,10.5,89,0,64.8,0C33.4,0,8.5,19.5,8.5,51.9c0,33.2,25.8,45,51.5,56c21.6,9.2,40.4,16.9,40.4,36.4
			c0,16.9-13.9,27.1-32.5,27.1c-19.1,0-37.1-10.5-49.2-26L0,166.6C15.9,184.5,41.6,197,68.6,197c32.9,0,60.8-18.5,60.8-54.2
			C129.4,107.5,102.6,94.8,77.9,84.2z M722.1,62.1L722,81.4c-10.5-13.4-26.9-22.1-47.8-22.1c-35.2,0-65.4,30-65.4,68.9
			c0,39,30.1,69,65.4,69c21,0,37.2-8.6,47.8-21.9v19.2h27.9V62.1H722.1z M680.4,172.2c-24.2,0-43.8-18.9-43.8-44.1
			c0-25.1,19.5-43.9,43.8-43.9c24.4,0,43.5,18.8,43.5,43.9C723.9,153.4,704.8,172.2,680.4,172.2z M456.3,81.4
			c-10.5-13.4-26.9-22.1-47.8-22.1c-35.2,0-65.4,30-65.4,68.9c0,39,30.1,69,65.4,69c21,0,37.2-8.6,47.8-21.9v19.2h27.9V62.1h-27.8
			L456.3,81.4z M414.6,172.2c-24.2,0-43.8-18.9-43.8-44.1c0-25.1,19.5-43.9,43.8-43.9c24.4,0,43.5,18.8,43.5,43.9
			C458.1,153.4,439,172.2,414.6,172.2z M558.8,25.5h-27.9v36.6h-21.6v21.4h21.6v72.2c0,25.1,16,38.8,40.2,38.8h20v-22.4h-14.4
			c-10.6,0-18-6.8-18-19.6v-69h32.6V62.1h-32.6V25.5z"/>
	</defs>
	<clipPath id="SVGID_2_">
		<use xlink:href="#SVGID_1_"  style="overflow:visible;"/>
	</clipPath>
	<rect x="-7.6" y="-15.7" class="st0" width="789" height="255"/>
	<g class="st1">
		<path class="st2" d="M781.4,128c-101.9,0-132.5-38.2-199.8-38.2s-99.8,56.3-199.8,56.3S236.7-34.7,179.2-34.7S88.4,71.7-17.6,71.7
			"/>
		<path class="st3" d="M781.4,138.4c-101.9,0-132.5-35.6-199.8-35.6c-67.3,0-99.7,52.6-199.8,52.6c-100,0-145.3-168.8-202.8-168.8
			S88.4,85.8-17.6,85.8"/>
		<path class="st4" d="M781.4,148.7c-101.9,0-132.5-33.1-199.8-33.1c-67.3,0-99.7,48.8-199.8,48.8C282,164.5,236.7,7.7,179.2,7.7
			S88.4,99.9-17.6,99.9"/>
		<path class="st5" d="M781.4,159.1c-101.9,0-132.5-30.5-199.8-30.5c-67.4,0-99.7,45.1-199.8,45.1c-100,0-145.3-144.7-202.8-144.7
			S88.4,114-17.6,114"/>
		<path class="st6" d="M781.4,169.4c-101.9,0-132.5-28-199.8-28c-67.4,0-99.6,41.3-199.8,41.3c-100,0-145.3-132.6-202.8-132.6
			s-90.8,78-196.7,78"/>
		<path class="st7" d="M781.4,179.8c-101.9,0-132.5-25.4-199.8-25.4c-67.5,0-99.6,37.6-199.8,37.6c-100,0-145.3-120.6-202.8-120.6
			s-90.8,70.9-196.7,70.9"/>
		<path class="st8" d="M781.4,190.1c-101.9,0-132.5-22.9-199.8-22.9c-67.5,0-99.6,33.8-199.8,33.8C282,201,236.7,92.5,179.2,92.5
			s-90.8,63.8-196.7,63.8"/>
		<path class="st9" d="M781.4,200.5c-101.9,0-132.5-20.4-199.8-20.4c-67.6,0-99.5,30-199.8,30c-100,0-145.3-96.5-202.8-96.5
			s-90.8,56.7-196.7,56.7"/>
		<path class="st10" d="M781.4,210.8c-101.9,0-132.5-17.8-199.8-17.8c-67.6,0-99.5,26.3-199.8,26.3c-100,0-145.3-84.4-202.8-84.4
			s-90.8,49.6-196.7,49.6"/>
		<path class="st11" d="M781.4,221.2c-101.9,0-132.5-15.3-199.8-15.3c-67.7,0-99.5,22.5-199.8,22.5c-100,0-145.3-72.3-202.8-72.3
			s-90.8,42.5-196.7,42.5"/>
		<path class="st12" d="M781.4,231.5c-101.9,0-132.5-12.7-199.8-12.7c-67.7,0-99.4,18.8-199.8,18.8c-100,0-145.3-60.3-202.8-60.3
			s-90.8,35.4-196.7,35.4"/>
		<path class="st13" d="M781.4,241.9c-101.9,0-132.5-10.2-199.8-10.2c-67.8,0-99.4,15-199.8,15c-100,0-145.3-48.2-202.8-48.2
			s-90.8,28.4-196.7,28.4"/>
		<path class="st14" d="M781.4,252.2c-101.9,0-132.5-7.6-199.8-7.6c-67.8,0-99.4,11.3-199.8,11.3c-100,0-145.3-36.2-202.8-36.2
			S88.4,241-17.6,241"/>
		<path class="st15" d="M781.4,262.6c-101.9,0-132.5-5.1-199.8-5.1c-67.9,0-99.3,7.5-199.8,7.5c-100,0-145.3-24.1-202.8-24.1
			s-90.8,14.2-196.7,14.2"/>
		<path class="st16" d="M781.4,273c-101.9,0-132.5-2.5-199.8-2.5c-67.9,0-99.3,3.8-199.8,3.8c-100,0-145.3-12.1-202.8-12.1
			s-90.8,7.1-196.7,7.1"/>
		<path class="st17" d="M781.4,283.3c-101.9,0-132.5,0-199.8,0c-68,0-99.3,0-199.8,0c-100,0-145.3,0-202.8,0s-90.8,0-196.7,0"/>
	</g>
</g>
</svg>
