<svg id="Layer_1" data-name="Layer 1" xmlns="http://www.w3.org/2000/svg" xmlns:xlink="http://www.w3.org/1999/xlink" viewBox="0 0 749.88 197.13"><defs><style>.logo-svg-1,.logo-svg-4{fill:none;}.logo-svg-2{logo-svg-clip-path:url(#logo-svg-clip-path);}.logo-svg-3{fill:#0a1772;}.logo-svg-4{stroke:#ff45b3;stroke-miterlimit:10;stroke-width:3.32px;}</style><clipPath id="logo-svg-clip-path"><path class="logo-svg-1" d="M195.25,25.5H167.38V62.13H145.75V83.5h21.63v72.25c0,25.13,16,38.75,40.25,38.75h20V172.13H213.25c-10.62,0-18-6.75-18-19.62v-69h32.63V62.13H195.25ZM285.5,85.63V62.13H258.38V194.5h27.88V126.63c0-29.25,18.13-39.12,45.13-39.12V60.88C309.13,61.5,293.25,72.5,285.5,85.63ZM77.88,84.25C55.75,75,37.13,68,37.13,49.25c0-15.5,12.5-23.62,27.38-23.62,14.38,0,28.63,5.5,43.13,20.25l16.5-20.25C109.13,10.5,89,0,64.75,0,33.38,0,8.5,19.5,8.5,51.88c0,33.25,25.75,45,51.5,56,21.63,9.25,40.38,16.88,40.38,36.38,0,16.88-13.88,27.13-32.5,27.13-19.13,0-37.13-10.5-49.25-26L0,166.63C15.88,184.5,41.63,197,68.63,197c32.88,0,60.75-18.5,60.75-54.25C129.38,107.5,102.63,94.75,77.88,84.25ZM558.75,25.5H530.88V62.13H509.25V83.5h21.63v72.25c0,25.13,16,38.75,40.25,38.75h20V172.13H576.75c-10.62,0-18-6.75-18-19.62v-69h32.63V62.13H558.75ZM722.13,62.13,722,81.38C711.5,68,695.13,59.25,674.25,59.25c-35.25,0-65.37,30-65.37,68.88s30.13,69,65.38,69c21,0,37.25-8.62,47.75-21.87V194.5h27.88V62.13ZM680.38,172.25c-24.25,0-43.75-18.87-43.75-44.12s19.5-43.87,43.75-43.87,43.5,18.75,43.5,43.88S704.75,172.25,680.38,172.25ZM456.25,81.38C445.75,68,429.38,59.25,408.5,59.25c-35.25,0-65.37,30-65.37,68.88s30.13,69,65.38,69c21,0,37.25-8.62,47.75-21.87V194.5h27.88V62.13H456.38Zm-41.62,90.88c-24.25,0-43.75-18.87-43.75-44.12s19.5-43.87,43.75-43.87,43.5,18.75,43.5,43.88S439,172.25,414.63,172.25Z"/></clipPath></defs><title>strata-logo</title><g class="logo-svg-2"><rect class="logo-svg-3" x="-7.56" y="-15.69" width="789" height="255"/><path class="logo-svg-4" d="M781.44,108c-101.95,0-132.5-18.17-199.75-18.17s-99.77,36.34-199.75,36.34S236.68,35.31,179.16,35.31,88.37,71.66-17.56,71.66"/><path class="logo-svg-4" d="M781.44,124.35c-101.95,0-132.5-17-199.75-17s-99.77,33.92-199.75,33.92-145.26-84.8-202.78-84.8S88.37,90.43-17.56,90.43"/><path class="logo-svg-4" d="M781.44,140.71c-101.95,0-132.5-15.75-199.75-15.75s-99.77,31.5-199.75,31.5S236.68,77.71,179.16,77.71s-90.8,31.5-196.72,31.5"/><path class="logo-svg-4" d="M781.44,157.06c-101.95,0-132.5-14.54-199.75-14.54S481.92,171.6,381.94,171.6,236.68,98.91,179.16,98.91,88.37,128-17.56,128"/><path class="logo-svg-4" d="M781.44,173.42c-101.95,0-132.5-13.33-199.75-13.33s-99.77,26.65-199.75,26.65-145.26-66.63-202.78-66.63-90.8,26.65-196.72,26.65"/><path class="logo-svg-4" d="M781.44,189.77c-101.95,0-132.5-12.11-199.75-12.11s-99.77,24.23-199.75,24.23-145.26-60.57-202.78-60.57-90.8,24.23-196.72,24.23"/><path class="logo-svg-4" d="M781.44,206.12c-101.95,0-132.5-10.9-199.75-10.9S481.92,217,381.94,217s-145.26-54.51-202.78-54.51-90.8,21.81-196.72,21.81"/><path class="logo-svg-4" d="M781.44,222.48c-101.95,0-132.5-9.69-199.75-9.69s-99.77,19.38-199.75,19.38-145.26-48.46-202.78-48.46S88.37,203.1-17.56,203.1"/></g></svg>