<?xml version="1.0" encoding="utf-8"?>
<!-- Generator: Adobe Illustrator 21.0.2, SVG Export Plug-In . SVG Version: 6.00 Build 0)  -->
<svg version="1.1" id="Layer_1" xmlns="http://www.w3.org/2000/svg" xmlns:xlink="http://www.w3.org/1999/xlink" x="0px" y="0px"
	 viewBox="0 0 799 320.5" style="enable-background:new 0 0 799 320.5;" xml:space="preserve">
<style type="text/css">
	.st0{fill:none;stroke:#FF45B3;stroke-width:4;stroke-miterlimit:10;}
	.st1{fill:none;stroke:#FF45B3;stroke-width:3.8;stroke-miterlimit:10;}
	.st2{fill:none;stroke:#FF45B3;stroke-width:3.6;stroke-miterlimit:10;}
	.st3{fill:none;stroke:#FF45B3;stroke-width:3.4;stroke-miterlimit:10;}
	.st4{fill:none;stroke:#FF45B3;stroke-width:3.2;stroke-miterlimit:10;}
	.st5{fill:none;stroke:#FF45B3;stroke-width:3;stroke-miterlimit:10;}
	.st6{fill:none;stroke:#FF45B3;stroke-width:2.8;stroke-miterlimit:10;}
	.st7{fill:none;stroke:#FF45B3;stroke-width:2.6;stroke-miterlimit:10;}
	.st8{fill:none;stroke:#FF45B3;stroke-width:2.4;stroke-miterlimit:10;}
	.st9{fill:none;stroke:#FF45B3;stroke-width:2.2;stroke-miterlimit:10;}
	.st10{fill:none;stroke:#FF45B3;stroke-width:2;stroke-miterlimit:10;}
	.st11{fill:none;stroke:#FF45B3;stroke-width:1.8;stroke-miterlimit:10;}
	.st12{fill:none;stroke:#FF45B3;stroke-width:1.6;stroke-miterlimit:10;}
	.st13{fill:none;stroke:#FF45B3;stroke-width:1.4;stroke-miterlimit:10;}
	.st14{fill:none;stroke:#FF45B3;stroke-width:1.2;stroke-miterlimit:10;}
	.st15{fill:none;stroke:#FF45B3;stroke-miterlimit:10;}
</style>
<g>
	<path class="st0" d="M799,164.7c-101.9,0-132.5-38.2-199.8-38.2s-99.8,56.3-199.8,56.3S254.2,2,196.7,2S105.9,108.3,0,108.3"/>
	<path class="st1" d="M799,175c-101.9,0-132.5-35.6-199.8-35.6c-67.3,0-99.7,52.6-199.8,52.6c-100,0-145.3-168.8-202.8-168.8
		S105.9,122.5,0,122.5"/>
	<path class="st2" d="M799,185.4c-101.9,0-132.5-33.1-199.8-33.1c-67.3,0-99.7,48.8-199.8,48.8c-100,0-145.3-156.7-202.8-156.7
		S105.9,136.6,0,136.6"/>
	<path class="st3" d="M799,195.7c-101.9,0-132.5-30.5-199.8-30.5c-67.4,0-99.7,45.1-199.8,45.1c-100,0-145.3-144.7-202.8-144.7
		S105.9,150.7,0,150.7"/>
	<path class="st4" d="M799,206.1c-101.9,0-132.5-28-199.8-28c-67.4,0-99.6,41.3-199.8,41.3c-100,0-145.3-132.6-202.8-132.6
		s-90.8,78-196.7,78"/>
	<path class="st5" d="M799,216.5c-101.9,0-132.5-25.4-199.8-25.4c-67.5,0-99.6,37.6-199.8,37.6c-100,0-145.3-120.6-202.8-120.6
		S105.9,178.9,0,178.9"/>
	<path class="st6" d="M799,226.8c-101.9,0-132.5-22.9-199.8-22.9c-67.5,0-99.6,33.8-199.8,33.8c-100,0-145.3-108.5-202.8-108.5
		S105.9,193,0,193"/>
	<path class="st7" d="M799,237.2c-101.9,0-132.5-20.4-199.8-20.4c-67.6,0-99.5,30-199.8,30c-100,0-145.3-96.5-202.8-96.5
		S105.9,207.1,0,207.1"/>
	<path class="st8" d="M799,247.5c-101.9,0-132.5-17.8-199.8-17.8c-67.6,0-99.5,26.3-199.8,26.3c-100,0-145.3-84.4-202.8-84.4
		S105.9,221.2,0,221.2"/>
	<path class="st9" d="M799,257.9c-101.9,0-132.5-15.3-199.8-15.3c-67.7,0-99.5,22.5-199.8,22.5c-100,0-145.3-72.3-202.8-72.3
		S105.9,235.3,0,235.3"/>
	<path class="st10" d="M799,268.2c-101.9,0-132.5-12.7-199.8-12.7c-67.7,0-99.4,18.8-199.8,18.8c-100,0-145.3-60.3-202.8-60.3
		S105.9,249.4,0,249.4"/>
	<path class="st11" d="M799,278.6c-101.9,0-132.5-10.2-199.8-10.2c-67.8,0-99.4,15-199.8,15c-100,0-145.3-48.2-202.8-48.2
		S105.9,263.6,0,263.6"/>
	<path class="st12" d="M799,288.9c-101.9,0-132.5-7.6-199.8-7.6c-67.8,0-99.4,11.3-199.8,11.3c-100,0-145.3-36.2-202.8-36.2
		S105.9,277.7,0,277.7"/>
	<path class="st13" d="M799,299.3c-101.9,0-132.5-5.1-199.8-5.1c-67.9,0-99.3,7.5-199.8,7.5c-100,0-145.3-24.1-202.8-24.1
		S105.9,291.8,0,291.8"/>
	<path class="st14" d="M799,309.6c-101.9,0-132.5-2.5-199.8-2.5c-67.9,0-99.3,3.8-199.8,3.8c-100,0-145.3-12.1-202.8-12.1
		s-90.8,7.1-196.7,7.1"/>
	<path class="st15" d="M799,320c-101.9,0-132.5,0-199.8,0c-68,0-99.3,0-199.8,0c-100,0-145.3,0-202.8,0s-90.8,0-196.7,0"/>
</g>
</svg>
